<svg width="145" height="60" viewBox="0 0 145 60" fill="none" xmlns="http://www.w3.org/2000/svg">
<path d="M26.4942 7.73549C24.7948 9.76213 22.0758 11.3606 19.3567 11.1323C19.0168 8.39201 20.348 5.48049 21.9058 3.68221C23.6052 1.59848 26.5792 0.114177 28.9867 0C29.2699 2.85442 28.1653 5.65176 26.4942 7.73549ZM28.9584 11.6746C25.0214 11.4462 21.6509 13.9296 19.7816 13.9296C17.8839 13.9296 15.0232 11.7888 11.9076 11.8459C7.85734 11.9029 4.0903 14.215 2.02268 17.8972C-2.22585 25.2617 0.918065 36.1656 5.02498 42.1598C7.03595 45.1284 9.44345 48.3825 12.6157 48.2683C15.618 48.1541 16.8076 46.2988 20.433 46.2988C24.0867 46.2988 25.1347 48.2683 28.3069 48.2112C31.5925 48.1541 33.6601 45.2426 35.6711 42.274C37.9653 38.9058 38.9 35.6232 38.9566 35.452C38.9 35.3949 32.6121 32.9686 32.5555 25.6613C32.4988 19.5528 37.5121 16.6413 37.7387 16.47C34.9063 12.2455 30.4879 11.7888 28.9584 11.6746ZM51.7022 3.39676V47.8972H58.5565V32.6832H68.0449C76.7119 32.6832 82.8015 26.6889 82.8015 18.0114C82.8015 9.33397 76.8252 3.39676 68.2715 3.39676H51.7022ZM58.5565 9.21979H66.4588C72.4067 9.21979 75.8056 12.4167 75.8056 18.04C75.8056 23.6632 72.4067 26.8887 66.4305 26.8887H58.5565V9.21979ZM95.3205 48.2398C99.6257 48.2398 103.619 46.0419 105.432 42.5595H105.574V47.8972H111.918V25.7469C111.918 19.3245 106.82 15.1855 98.9742 15.1855C91.6951 15.1855 86.3136 19.3815 86.1153 25.1475H92.2899C92.7997 22.4072 95.3205 20.6089 98.776 20.6089C102.968 20.6089 105.319 22.5785 105.319 26.2036V28.6584L96.765 29.1722C88.8061 29.6575 84.5009 32.9401 84.5009 38.6489C84.5009 44.4148 88.9477 48.2398 95.3205 48.2398ZM97.1615 42.9591C93.5078 42.9591 91.1852 41.1893 91.1852 38.4776C91.1852 35.6803 93.4228 34.0533 97.6997 33.7964L105.319 33.3111V35.823C105.319 39.9905 101.807 42.9591 97.1615 42.9591ZM120.387 60C127.071 60 130.215 57.431 132.962 49.6384L145 15.6137H138.032L129.96 41.903H129.819L121.746 15.6137H114.581L126.193 48.0114L125.57 49.981C124.522 53.3206 122.823 54.6051 119.792 54.6051C119.254 54.6051 118.206 54.548 117.781 54.491V59.8287C118.178 59.9429 119.877 60 120.387 60Z" fill="#686868"/>
</svg>
