<svg width="132" height="63" viewBox="0 0 132 63" fill="none" xmlns="http://www.w3.org/2000/svg">
<g clip-path="url(#clip0_15_45)">
<path d="M62.3699 32.5754V47.9534H57.4199V9.92188H70.2899C73.4249 9.92188 76.3949 11.0794 78.7049 13.229C81.0149 15.2132 82.1699 18.1896 82.1699 21.3313C82.1699 24.4731 81.0149 27.2841 78.7049 29.4337C76.3949 31.5833 73.5899 32.7408 70.2899 32.7408L62.3699 32.5754ZM62.3699 14.5518V27.7801H70.6199C72.4349 27.7801 74.2499 27.1187 75.4049 25.7959C78.0449 23.3156 78.0449 19.1817 75.5699 16.7014L75.4049 16.536C74.0849 15.2132 72.4349 14.3864 70.6199 14.5518H62.3699Z" fill="#686868"/>
<path d="M93.5549 21.166C97.1849 21.166 99.9899 22.1581 102.135 24.1424C104.28 26.1266 105.27 28.7723 105.27 32.0794V47.9534H100.65V44.3156H100.485C98.5049 47.292 95.6999 48.7802 92.3999 48.7802C89.5949 48.7802 87.1199 47.9534 85.1399 46.2999C83.3249 44.6463 82.1699 42.3314 82.1699 39.8511C82.1699 37.2054 83.1599 35.0558 85.1399 33.4022C87.1199 31.7487 89.9249 31.0873 93.2249 31.0873C96.1949 31.0873 98.5049 31.5833 100.32 32.7408V31.5833C100.32 29.9298 99.6599 28.2763 98.3399 27.2841C97.0199 26.1266 95.3699 25.4652 93.5549 25.4652C90.7499 25.4652 88.6049 26.6227 87.1199 28.9377L82.8299 26.292C85.4699 22.8196 88.9349 21.166 93.5549 21.166ZM87.2849 40.0164C87.2849 41.3392 87.9449 42.4967 88.9349 43.1581C90.0899 43.9849 91.4099 44.481 92.7299 44.481C94.7099 44.481 96.6899 43.6542 98.1749 42.166C99.8249 40.6778 100.65 38.8589 100.65 36.8747C99.1649 35.7172 97.0199 35.0558 94.2149 35.0558C92.2349 35.0558 90.5849 35.5518 89.2649 36.544C87.9449 37.3707 87.2849 38.5282 87.2849 40.0164Z" fill="#686868"/>
<path d="M132.001 21.9922L115.666 59.5276H110.716L116.821 46.4646L106.096 22.1575H111.376L119.131 40.8426H119.296L126.886 22.1575H132.001V21.9922Z" fill="#686868"/>
<path d="M42.7343 29.2673C42.7343 27.7791 42.5693 26.2909 42.4043 24.8027H21.7793V33.2358H33.4943C32.9993 35.8815 31.5143 38.3618 29.2043 39.85V45.3067H36.2993C40.4243 41.5035 42.7343 35.8815 42.7343 29.2673Z" fill="#686868"/>
<path d="M21.7805 50.5992C27.7205 50.5992 32.6705 48.6149 36.3005 45.3078L29.2056 39.8511C27.2256 41.174 24.7505 42.0007 21.7805 42.0007C16.1705 42.0007 11.2205 38.1976 9.57055 32.9062H2.31055V38.5283C6.10555 45.9692 13.5305 50.5992 21.7805 50.5992Z" fill="#686868"/>
<path d="M9.57024 32.9047C8.58024 30.2591 8.58024 27.2827 9.57024 24.4717V18.8496H2.31023C-0.824766 24.9677 -0.824766 32.2433 2.31023 38.5268L9.57024 32.9047Z" fill="#686868"/>
<path d="M21.7796 15.5429C24.9146 15.5429 27.8846 16.7003 30.1946 18.85L36.4646 12.5665C32.5046 8.9287 27.2246 6.77909 21.9446 6.94444C13.6946 6.94444 6.10461 11.5744 2.47461 19.0153L9.73461 24.6374C11.2196 19.346 16.1696 15.5429 21.7796 15.5429Z" fill="#686868"/>
</g>
<defs>
<clipPath id="clip0_15_45">
<rect width="132" height="63" fill="white"/>
</clipPath>
</defs>
</svg>
