<svg width="106" height="63" viewBox="0 0 106 63" fill="none" xmlns="http://www.w3.org/2000/svg">
<g clip-path="url(#clip0_15_107)">
<path fill-rule="evenodd" clip-rule="evenodd" d="M31.8352 0C14.252 0 0 14.1029 0 31.5C0 48.8971 14.252 63 31.8352 63C39.9594 63 47.3733 59.9871 52.9984 55.0317C53.4456 54.6378 53.8803 54.231 54.3037 53.813C54.4449 53.6737 54.5851 53.5338 54.7237 53.3918H51.273C51.4116 53.5338 51.5519 53.6737 51.6931 53.813C51.552 53.674 51.4114 53.5334 51.273 53.3918C50.6657 52.7703 50.0859 52.1251 49.5315 51.456C49.4092 51.3084 49.2861 51.1589 49.1664 51.009C49.2863 51.1593 49.4089 51.3078 49.5315 51.456H56.462C56.9526 50.8633 57.4239 50.2538 57.8708 49.6263H48.126C48.3493 49.9401 48.5768 50.2507 48.811 50.5556C48.5762 50.2504 48.3496 49.9402 48.126 49.6263C47.5801 48.8601 47.0677 48.0677 46.5913 47.2532C45.9738 46.1976 45.4166 45.105 44.9241 43.9765C44.7888 43.6666 44.6585 43.3557 44.5331 43.0408C44.4085 42.7277 44.2892 42.41 44.1745 42.0922C43.9449 41.4561 43.733 40.8106 43.5444 40.1564H62.4556C62.634 39.5374 62.7933 38.9092 62.9338 38.2753H43.0662C43.1716 38.7507 43.2885 39.2226 43.4152 39.6901C43.2883 39.2225 43.1717 38.7512 43.0662 38.2753C42.8591 37.3403 42.693 36.3903 42.5719 35.4262C42.5594 35.3271 42.5479 35.2266 42.5363 35.1272C42.5481 35.2275 42.5591 35.3263 42.5719 35.4262C42.6109 35.7316 42.6539 36.0364 42.7011 36.3395H63.2989C63.3934 35.7333 63.4725 35.1237 63.5315 34.5066H42.4685C42.4074 33.8683 42.3677 33.2228 42.3457 32.574C42.3397 32.3954 42.3358 32.2163 42.3328 32.037C42.3298 31.8582 42.3263 31.6796 42.3263 31.5C42.3263 31.6798 42.3295 31.858 42.3328 32.037C42.3361 32.216 42.3397 32.3957 42.3457 32.574H63.6543C63.6597 32.4149 63.6639 32.2545 63.6672 32.0949C63.6675 32.0756 63.6669 32.0562 63.6672 32.037C63.6673 32.0306 63.6671 32.0241 63.6672 32.0177C63.6703 31.8452 63.6737 31.6734 63.6737 31.5C63.6737 31.2073 63.669 30.9162 63.6607 30.6254C63.6303 29.5511 63.5448 28.4894 63.4087 27.4451H42.5913C42.5048 28.1087 42.4388 28.7788 42.3942 29.4549C42.383 29.6239 42.3735 29.7932 42.3651 29.9629C42.3581 30.1039 42.3508 30.246 42.3457 30.3874C42.3507 30.2456 42.3582 30.1043 42.3651 29.9629C42.3734 29.7931 42.3832 29.624 42.3942 29.4549C42.5237 27.4563 42.8423 25.5081 43.3312 23.6282C43.5013 22.9741 43.6923 22.3294 43.9031 21.6924C43.9529 21.5419 44.0029 21.3917 44.0549 21.2422C44.1065 21.0941 44.1595 20.9456 44.2132 20.7985C44.1595 20.9468 44.1066 21.093 44.0549 21.2422C44.0033 21.3915 43.9527 21.5424 43.9031 21.6924H62.0969C61.8983 21.0922 61.6843 20.4979 61.4507 19.9142H44.5493C44.4909 20.0601 44.434 20.2076 44.378 20.3547C44.4343 20.2076 44.4909 20.0603 44.5493 19.9142C44.8122 19.2569 45.0968 18.6132 45.4023 17.9784C45.4855 17.8054 45.5712 17.6319 45.6575 17.4607C45.7446 17.2879 45.8322 17.1172 45.9225 16.9462C45.8328 17.1164 45.7441 17.2887 45.6575 17.4607C45.5709 17.6327 45.4859 17.8047 45.4023 17.9784H60.5977C60.4844 17.7429 60.3677 17.5097 60.2488 17.2774C60.1924 17.1674 60.1384 17.0587 60.0808 16.9494C60.066 16.9213 60.0504 16.8938 60.0355 16.8658C60.0185 16.8337 60.0011 16.8015 59.9838 16.7693C59.8986 16.61 59.8133 16.4512 59.7254 16.2934C59.6587 16.1739 59.5901 16.0551 59.5218 15.9365H46.4782C46.8584 15.2758 47.2638 14.6304 47.6898 14.0007C47.7899 13.8527 47.891 13.7064 47.9935 13.5602C48.0954 13.4151 48.1995 13.2694 48.3037 13.1261C48.5132 12.8379 48.7245 12.5547 48.9435 12.2739C49.4624 11.6086 50.0083 10.963 50.5784 10.3414H55.4184C55.2275 10.1332 55.0332 9.92705 54.8368 9.72397C54.2478 9.11471 53.6351 8.52917 52.9984 7.96825C47.3733 3.01292 39.9594 0 31.8352 0ZM48.9435 12.2739C48.7248 12.5542 48.5126 12.8382 48.3037 13.1261C48.1993 13.27 48.0956 13.4144 47.9935 13.5602C47.8915 13.7059 47.7896 13.8533 47.6898 14.0007H58.3069C57.9078 13.4111 57.4907 12.8345 57.0533 12.2739H48.9435ZM43.3312 23.6282C43.17 24.2479 43.0283 24.8757 42.9047 25.5093H63.0953C62.9717 24.8757 62.83 24.2479 62.6688 23.6282H43.3312ZM44.1745 42.0922C44.2896 42.4112 44.4082 42.7267 44.5331 43.0408C44.658 43.3548 44.7892 43.6674 44.9241 43.9765H61.0759C61.3458 43.3582 61.5953 42.7302 61.8255 42.0922H44.1745ZM46.5913 47.2532C46.6771 47.3999 46.7649 47.5452 46.853 47.6905H59.147C59.4996 47.1094 59.8336 46.517 60.1486 45.9123H45.8514C46.0875 46.3658 46.3338 46.8131 46.5913 47.2532ZM55.8837 10.8591C55.9605 10.9466 56.0373 11.0344 56.1131 11.1228C56.0373 11.0345 55.9604 10.9465 55.8837 10.8591ZM58.601 14.438C58.6624 14.5322 58.7247 14.6262 58.7851 14.721C58.7245 14.6259 58.6626 14.5325 58.601 14.438ZM56.1131 51.8772C56.0373 51.9656 55.9605 52.0534 55.8837 52.1409C55.9604 52.0535 56.0373 51.9655 56.1131 51.8772ZM55.6123 52.4464C55.5211 52.5476 55.4301 52.6486 55.3376 52.7487C55.43 52.6487 55.5212 52.5475 55.6123 52.4464Z" fill="#686868"/>
<path fill-rule="evenodd" clip-rule="evenodd" d="M74.1646 0C66.0405 0 58.6266 3.01292 53.0015 7.96825C53.8498 8.71568 54.655 9.5092 55.4183 10.3414H50.5782C50.0084 10.9628 49.4653 11.6089 48.9465 12.2739H57.0532C57.4905 12.8345 57.9077 13.4111 58.3068 14.0007H47.6897C47.2636 14.6305 46.8583 15.2758 46.478 15.9365H59.5216C59.9049 16.6022 60.2631 17.2835 60.5976 17.9784H45.4021C45.0972 18.6122 44.8116 19.258 44.5491 19.9142H61.4506C61.6841 20.4979 61.8981 21.0922 62.0968 21.6924H43.9029C43.4926 22.9324 43.158 24.2069 42.9045 25.5093C43.0281 24.8757 43.1698 24.2479 43.331 23.6282H62.6687C62.8299 24.2479 62.9716 24.8757 63.0952 25.5093H42.9045C42.7485 26.311 42.6231 27.1215 42.5297 27.9435C42.5488 27.7768 42.5695 27.611 42.5911 27.4451H63.4086C63.5815 28.7722 63.6735 30.1259 63.6735 31.5C63.6735 31.8596 63.6662 32.2173 63.6541 32.574H42.3456C42.3676 33.2242 42.4103 33.867 42.4716 34.5066H63.5313C63.4723 35.1237 63.3932 35.7333 63.2987 36.3395H42.701C42.8027 36.9923 42.9245 37.6363 43.0661 38.2753H62.9336C62.7931 38.9092 62.6338 39.5374 62.4554 40.1564H43.5443C43.733 40.8112 43.9446 41.4555 44.1743 42.0922H61.8254C61.5951 42.7302 61.3457 43.3582 61.0758 43.9765H44.9239C45.4848 45.2614 46.1309 46.501 46.8528 47.6905C46.5004 47.1093 46.1661 46.517 45.8512 45.9123H60.1485C59.8334 46.517 59.4994 47.1094 59.1469 47.6905H46.8528C47.2539 48.3514 47.6783 48.9982 48.1258 49.6263H57.8706C57.4237 50.2538 56.9525 50.8633 56.4619 51.456H49.5313C50.0851 52.1243 50.6663 52.771 51.2729 53.3918H54.7236C54.1697 53.9591 53.5971 54.5069 53.0015 55.0317C58.6266 59.9871 66.0405 63 74.1646 63C91.7478 63 106 48.8971 106 31.5C106 14.1029 91.7478 0 74.1646 0ZM48.1258 49.6263C48.2374 49.7829 48.3507 49.9381 48.4651 50.0926C48.3507 49.9379 48.2375 49.7832 48.1258 49.6263ZM44.9239 43.9765C44.6542 43.3582 44.4045 42.7302 44.1743 42.0922C44.4046 42.7303 44.654 43.3582 44.9239 43.9765ZM42.3456 32.574C42.3395 32.3957 42.336 32.216 42.3326 32.037C42.3357 32.2157 42.3395 32.396 42.3456 32.574ZM42.3326 32.037C42.3293 31.858 42.3262 31.6798 42.3262 31.5C42.3262 31.6798 42.3296 31.8579 42.3326 32.037ZM42.5297 27.9435C42.4918 28.2775 42.4601 28.613 42.4328 28.95C42.4605 28.6135 42.4916 28.277 42.5297 27.9435ZM42.4328 28.95C42.4223 29.0793 42.4126 29.2094 42.4037 29.3391C42.4128 29.209 42.4221 29.0797 42.4328 28.95ZM43.9029 21.6924C43.9526 21.5424 44.0031 21.3915 44.0548 21.2422C44.0028 21.3917 43.9527 21.542 43.9029 21.6924ZM44.5491 19.9142C44.5014 20.0336 44.4565 20.1543 44.4102 20.2743C44.4563 20.1543 44.5014 20.0334 44.5491 19.9142ZM47.6897 14.0007C47.7894 13.8533 47.8913 13.7059 47.9934 13.5602C47.891 13.7061 47.7896 13.853 47.6897 14.0007ZM47.9934 13.5602C48.0954 13.4144 48.1991 13.27 48.3036 13.1261C48.199 13.2698 48.0955 13.4146 47.9934 13.5602ZM45.9223 16.9462C45.8409 17.1005 45.7621 17.2566 45.6832 17.4125C45.7619 17.2569 45.8411 17.1003 45.9223 16.9462ZM44.3553 20.4158C44.3069 20.543 44.2598 20.6705 44.2131 20.7985C44.2595 20.6706 44.3072 20.5429 44.3553 20.4158ZM42.3649 29.9629C42.3571 30.1248 42.3477 30.286 42.3423 30.4485C42.3478 30.2867 42.3569 30.1242 42.3649 29.9629ZM42.5717 35.4262C42.584 35.5239 42.5973 35.6215 42.6105 35.7189C42.5971 35.6213 42.5842 35.5241 42.5717 35.4262ZM43.0693 38.2913C43.1035 38.4451 43.1395 38.5983 43.1759 38.7512C43.1397 38.5988 43.1033 38.4445 43.0693 38.2913ZM43.2922 39.2207C43.3305 39.3708 43.3681 39.5216 43.4086 39.6708C43.3682 39.5215 43.3304 39.3709 43.2922 39.2207ZM51.3116 53.4304C51.4378 53.5591 51.5645 53.6865 51.6929 53.813C51.5647 53.6865 51.4377 53.5591 51.3116 53.4304Z" fill="#686868"/>
<path d="M102.498 49.4922C102.75 49.4922 102.998 49.5565 103.237 49.6873C103.478 49.8138 103.665 50 103.8 50.2411C103.935 50.4806 104.001 50.7301 104.001 50.991C104.001 51.2489 103.935 51.4978 103.802 51.7357C103.67 51.9737 103.485 52.1604 103.246 52.2917C103.007 52.4224 102.757 52.4883 102.497 52.4883C102.236 52.4883 101.985 52.4224 101.746 52.2917C101.508 52.1594 101.323 51.9737 101.19 51.7357C101.056 51.4978 100.99 51.2489 100.99 50.991C100.99 50.7301 101.057 50.4806 101.192 50.2411C101.328 50 101.516 49.8149 101.756 49.6873C101.998 49.5565 102.246 49.4922 102.498 49.4922ZM102.498 49.739C102.287 49.739 102.081 49.7934 101.88 49.9027C101.679 50.0094 101.523 50.1637 101.41 50.3656C101.298 50.5648 101.241 50.7735 101.241 50.99C101.241 51.2065 101.296 51.4136 101.405 51.6113C101.517 51.8084 101.673 51.9632 101.874 52.0746C102.072 52.1834 102.28 52.2383 102.498 52.2383C102.714 52.2383 102.923 52.1834 103.122 52.0746C103.321 51.9632 103.476 51.8084 103.587 51.6113C103.698 51.412 103.752 51.2065 103.752 50.99C103.752 50.7735 103.695 50.5648 103.583 50.3656C103.471 50.1637 103.315 50.0094 103.113 49.9027C102.913 49.7939 102.709 49.739 102.498 49.739ZM101.838 51.8184V50.206H102.396C102.586 50.206 102.724 50.2212 102.808 50.2521C102.894 50.2808 102.96 50.3326 103.012 50.4074C103.063 50.4817 103.089 50.5596 103.089 50.6433C103.089 50.7609 103.046 50.864 102.961 50.9508C102.878 51.0376 102.766 51.0878 102.626 51.0972C102.682 51.1213 102.728 51.15 102.764 51.1824C102.828 51.2462 102.908 51.3529 103.003 51.502L103.201 51.8179H102.881L102.739 51.5642C102.625 51.3639 102.534 51.2394 102.465 51.1887C102.417 51.1516 102.347 51.1333 102.255 51.1333H102.102V51.8189L101.838 51.8184ZM102.1 50.911H102.417C102.569 50.911 102.672 50.8885 102.726 50.8436C102.782 50.7996 102.811 50.7395 102.811 50.6647C102.811 50.6171 102.797 50.5742 102.771 50.5381C102.744 50.4994 102.707 50.4717 102.659 50.4524C102.611 50.4341 102.526 50.4247 102.397 50.4247H102.101V50.911" fill="#686868"/>
<path d="M102.498 36.623C102.75 36.623 102.998 36.6874 103.237 36.8181C103.478 36.9447 103.665 37.1309 103.8 37.3719C103.935 37.6115 104.001 37.8609 104.001 38.1219C104.001 38.3797 103.935 38.6287 103.802 38.8666C103.67 39.1046 103.485 39.2913 103.246 39.4225C103.007 39.5533 102.757 39.6192 102.497 39.6192C102.236 39.6192 101.985 39.5533 101.746 39.4225C101.508 39.2902 101.323 39.1046 101.19 38.8666C101.056 38.6287 100.99 38.3797 100.99 38.1219C100.99 37.8609 101.057 37.6115 101.192 37.3719C101.328 37.1309 101.516 36.9457 101.756 36.8181C101.998 36.6874 102.246 36.623 102.498 36.623ZM102.498 36.8699C102.287 36.8699 102.081 36.9243 101.88 37.0336C101.679 37.1403 101.523 37.2945 101.41 37.4964C101.298 37.6957 101.241 37.9043 101.241 38.1208C101.241 38.3374 101.296 38.5445 101.405 38.7421C101.517 38.9393 101.673 39.0941 101.874 39.2055C102.072 39.3143 102.28 39.3692 102.498 39.3692C102.714 39.3692 102.923 39.3143 103.122 39.2055C103.321 39.0941 103.476 38.9393 103.587 38.7421C103.698 38.5429 103.752 38.3374 103.752 38.1208C103.752 37.9043 103.695 37.6957 103.583 37.4964C103.471 37.2945 103.315 37.1403 103.113 37.0336C102.913 36.9248 102.709 36.8699 102.498 36.8699ZM101.838 38.9492V37.3369H102.396C102.586 37.3369 102.724 37.3521 102.808 37.3829C102.894 37.4117 102.96 37.4635 103.012 37.5383C103.063 37.6125 103.089 37.6904 103.089 37.7741C103.089 37.8918 103.046 37.9948 102.961 38.0816C102.878 38.1684 102.766 38.2186 102.626 38.2281C102.682 38.2521 102.728 38.2809 102.764 38.3133C102.828 38.3771 102.908 38.4838 103.003 38.6328L103.201 38.9487H102.881L102.739 38.6951C102.625 38.4948 102.534 38.3703 102.465 38.3196C102.417 38.2824 102.347 38.2641 102.255 38.2641H102.102V38.9498L101.838 38.9492ZM102.1 38.0419H102.417C102.569 38.0419 102.672 38.0194 102.726 37.9744C102.782 37.9305 102.811 37.8703 102.811 37.7956C102.811 37.748 102.797 37.7051 102.771 37.669C102.744 37.6303 102.707 37.6026 102.659 37.5832C102.611 37.5649 102.526 37.5555 102.397 37.5555H102.101V38.0419" fill="#686868"/>
<path d="M43.0591 39.0178L43.4757 36.6127C43.2482 36.6127 42.9134 36.6955 42.6181 36.6955C41.4595 36.6955 41.3318 36.1718 41.4055 35.7846L42.3415 30.8772H44.1023L44.5274 28.2169H42.8671L43.2051 26.5625H39.8768C39.8035 26.6249 37.9121 35.8671 37.9121 36.9924C37.9121 38.6585 39.0125 39.4005 40.5641 39.3885C41.7791 39.3798 42.7253 39.094 43.0591 39.0178Z" fill="white"/>
<path d="M44.1133 34.4329C44.1133 38.4315 47.2179 39.3817 49.8628 39.3817C52.3042 39.3817 53.3785 38.9177 53.3785 38.9177L53.9648 36.1887C53.9648 36.1887 52.1077 36.8842 50.4305 36.8842C46.8566 36.8842 47.4825 34.6189 47.4825 34.6189H54.2463C54.2463 34.6189 54.6831 32.7854 54.6831 32.0383C54.6831 30.174 53.5915 27.9023 49.9373 27.9023C46.5906 27.9029 44.1133 30.9685 44.1133 34.4329ZM49.95 30.4364C51.8283 30.4364 51.4818 32.2309 51.4818 32.376H47.7866C47.7866 32.1907 48.1359 30.4364 49.95 30.4364Z" fill="white"/>
<path d="M71.0268 39.0164L71.6223 35.9317C71.6223 35.9317 69.9892 36.6278 68.8684 36.6278C66.5075 36.6278 65.5605 35.0952 65.5605 33.4486C65.5605 30.1083 67.5919 28.2707 69.8534 28.2707C71.5493 28.2707 72.9104 29.0802 72.9104 29.0802L73.4537 26.083C73.4537 26.083 71.4353 25.3887 69.7052 25.3887C65.8629 25.3887 62.125 28.2224 62.125 33.5442C62.125 37.0732 64.1434 39.4039 68.1151 39.4039C69.2381 39.4042 71.0268 39.0164 71.0268 39.0164Z" fill="white"/>
<path d="M24.754 27.9453C22.4717 27.9453 20.7222 28.5689 20.7222 28.5689L20.2392 31.0064C20.2392 31.0064 21.6832 30.5076 23.866 30.5076C25.1053 30.5076 26.012 30.626 26.012 31.4823C26.012 32.0024 25.9009 32.1944 25.9009 32.1944C25.9009 32.1944 24.9233 32.1248 24.4707 32.1248C21.5922 32.1248 18.5684 33.1691 18.5684 36.3177C18.5684 38.7987 20.5521 39.368 21.7816 39.368C24.1299 39.368 25.142 38.0726 25.196 38.0687L25.0863 39.1499H28.017L29.3244 31.3576C29.3244 28.0518 25.9323 27.9453 24.754 27.9453ZM25.467 34.2899C25.5305 34.7659 25.1159 36.9971 23.112 36.9971C22.0783 36.9971 21.8095 36.3258 21.8095 35.9287C21.8095 35.1543 22.3045 34.2246 24.7434 34.2246C25.3107 34.2252 25.3714 34.2767 25.467 34.2899Z" fill="white"/>
<path d="M32.4398 39.3112C33.1895 39.3112 37.4753 39.4731 37.4753 35.7136C37.4753 32.1987 33.5081 32.8931 33.5081 31.481C33.5081 30.778 34.1547 30.5566 35.3366 30.5566C35.8058 30.5566 37.6111 30.6835 37.6111 30.6835L38.0309 28.1851C38.0309 28.1854 36.8625 27.9629 34.9602 27.9629C32.498 27.9629 29.9988 28.7985 29.9988 31.6574C29.9988 34.8969 34.166 34.5717 34.166 35.9364C34.166 36.8473 33.0018 36.9214 32.1046 36.9214C30.552 36.9214 29.1538 36.4685 29.1489 36.4901L28.7051 38.9633C28.7855 38.9843 29.6478 39.3112 32.4398 39.3112Z" fill="white"/>
<path d="M98.5957 25.7037L97.8777 29.4909C97.8777 29.4909 96.625 28.0197 94.6638 28.0197C91.6142 28.0197 89.0723 31.1456 89.0723 34.7372C89.0723 37.0556 90.4281 39.3272 93.1996 39.3272C95.1933 39.3272 96.2986 38.1455 96.2986 38.1455L96.1522 39.1548H99.3895L101.932 25.6992L98.5957 25.7037ZM97.0501 33.0879C97.0501 34.5824 96.1797 36.5787 94.3752 36.5787C93.1774 36.5787 92.6161 35.7239 92.6161 34.3824C92.6161 32.1887 93.7751 30.7413 95.2374 30.7413C96.4355 30.741 97.0501 31.4407 97.0501 33.0879Z" fill="white"/>
<path d="M6.73248 39.1669L8.7586 29.0084L9.05601 39.1669H11.3492L15.6269 29.0084L13.732 39.1669H17.1393L19.7634 25.6934H14.4944L11.213 33.9602L11.0423 25.6934H6.1853L3.52344 39.1669H6.73248Z" fill="white"/>
<path d="M58.0116 39.1848C58.9804 34.5012 59.16 30.6981 61.4719 31.3942C61.8766 29.5815 62.2671 28.8803 62.7088 28.1131C62.7088 28.1131 62.5017 28.0762 62.0671 28.0762C60.5765 28.0762 59.4722 29.8073 59.4722 29.8073L59.7689 28.2174H56.67L54.5938 39.1848H58.0116Z" fill="white"/>
<path d="M78.7067 27.9453C76.4245 27.9453 74.675 28.5689 74.675 28.5689L74.1923 31.0064C74.1923 31.0064 75.6363 30.5076 77.8191 30.5076C79.0585 30.5076 79.9644 30.626 79.9644 31.4823C79.9644 32.0024 79.854 32.1944 79.854 32.1944C79.854 32.1944 78.8764 32.1248 78.4234 32.1248C75.5453 32.1248 72.5215 33.1691 72.5215 36.3177C72.5215 38.7987 74.5049 39.368 75.7344 39.368C78.0826 39.368 79.0948 38.0726 79.1484 38.0687L79.0394 39.1499C79.0394 39.1499 81.969 39.1499 81.9701 39.1499L83.2772 31.3576C83.2776 28.0518 79.8851 27.9453 78.7067 27.9453ZM79.4208 34.2899C79.4843 34.7659 79.0694 36.9971 77.0648 36.9971C76.0311 36.9971 75.763 36.3258 75.763 35.9287C75.763 35.1543 76.258 34.2246 78.6965 34.2246C79.2638 34.2252 79.3241 34.2767 79.4208 34.2899Z" fill="white"/>
<path d="M85.9547 39.1848C86.9238 34.5012 87.1034 30.6981 89.4145 31.3942C89.8199 29.5815 90.2108 28.8803 90.6522 28.1131C90.6522 28.1131 90.4451 28.0762 90.0104 28.0762C88.5198 28.0762 87.4156 29.8073 87.4156 29.8073L87.7123 28.2174H84.6133L82.5371 39.1848H85.9547Z" fill="white"/>
</g>
<defs>
<clipPath id="clip0_15_107">
<rect width="106" height="63" fill="white"/>
</clipPath>
</defs>
</svg>
