<svg width="145" height="61" viewBox="0 0 145 61" fill="none" xmlns="http://www.w3.org/2000/svg">
<path fill-rule="evenodd" clip-rule="evenodd" d="M145.001 31.1758C145.001 20.8646 140.006 12.7285 130.46 12.7285C120.874 12.7285 115.074 20.8646 115.074 31.0952C115.074 43.2189 121.921 49.3411 131.749 49.3411C136.542 49.3411 140.167 48.2536 142.906 46.723V38.6675C140.167 40.0369 137.026 40.8827 133.038 40.8827C129.131 40.8827 125.667 39.5133 125.224 34.7605H144.92C144.92 34.2369 145.001 32.1424 145.001 31.1758ZM125.103 27.3494C125.103 22.798 127.883 20.9049 130.42 20.9049C132.877 20.9049 135.495 22.798 135.495 27.3494H125.103Z" fill="#686868"/>
<path fill-rule="evenodd" clip-rule="evenodd" d="M99.5273 12.7285C95.58 12.7285 93.0425 14.5813 91.6328 15.8702L91.1092 13.373H82.248V60.337L92.3175 58.2022L92.3578 46.8036C93.8078 47.8508 95.9425 49.3411 99.487 49.3411C106.697 49.3411 113.262 43.5411 113.262 30.773C113.222 19.0924 106.576 12.7285 99.5273 12.7285ZM97.1106 40.48C94.7342 40.48 93.3245 39.6341 92.3578 38.5869L92.3175 23.6438C93.3647 22.4758 94.8147 21.6702 97.1106 21.6702C100.776 21.6702 103.313 25.7785 103.313 31.0549C103.313 36.4522 100.816 40.48 97.1106 40.48Z" fill="#686868"/>
<path fill-rule="evenodd" clip-rule="evenodd" d="M68.3926 10.3514L78.5023 8.17641V0L68.3926 2.13473V10.3514Z" fill="#686868"/>
<path d="M78.5023 13.4121H68.3926V48.6552H78.5023V13.4121Z" fill="#686868"/>
<path fill-rule="evenodd" clip-rule="evenodd" d="M57.5574 16.393L56.9129 13.4124H48.2129V48.6556H58.2824V24.7708C60.6588 21.6694 64.6865 22.2333 65.9352 22.6763V13.4124C64.6463 12.9291 59.9337 12.043 57.5574 16.393Z" fill="#686868"/>
<path fill-rule="evenodd" clip-rule="evenodd" d="M37.4189 4.67188L27.5911 6.76632L27.5508 39.0289C27.5508 44.99 32.0216 49.3803 37.9827 49.3803C41.2855 49.3803 43.7022 48.7761 45.0314 48.0511V39.8747C43.7425 40.3983 37.3786 42.2511 37.3786 36.29V21.9914H45.0314V13.4122H37.3786L37.4189 4.67188Z" fill="#686868"/>
<path fill-rule="evenodd" clip-rule="evenodd" d="M10.1903 23.6438C10.1903 22.073 11.4792 21.4688 13.6139 21.4688C16.675 21.4688 20.5417 22.3952 23.6028 24.0466V14.5813C20.2598 13.2521 16.957 12.7285 13.6139 12.7285C5.43751 12.7285 0 16.998 0 24.1272C0 35.2438 15.3056 33.4716 15.3056 38.2647C15.3056 40.1175 13.6945 40.7216 11.4389 40.7216C8.09585 40.7216 3.8264 39.3522 0.443056 37.4994V47.0855C4.1889 48.6967 7.97502 49.3814 11.4389 49.3814C19.8167 49.3814 25.5764 45.2328 25.5764 38.023C25.5362 26.0202 10.1903 28.1549 10.1903 23.6438Z" fill="#686868"/>
</svg>
