<svg width="170" height="55" viewBox="0 0 170 55" fill="none" xmlns="http://www.w3.org/2000/svg">
<path d="M73.6416 54.2063H59.875L68.4856 0.964844H82.2514L73.6416 54.2063Z" fill="#686868"/>
<path d="M123.546 2.2667C120.831 1.18943 116.524 0 111.198 0C97.6035 0 88.03 7.24952 87.9713 17.6142C87.8584 25.2612 94.8256 29.5085 100.037 32.0582C105.363 34.6637 107.173 36.3643 107.173 38.6867C107.119 42.2535 102.869 43.8976 98.9058 43.8976C93.4096 43.8976 90.4646 43.05 85.9892 41.0656L84.1764 40.2149L82.25 52.1664C85.4788 53.6374 91.4275 54.9428 97.6035 55C112.048 55 121.452 47.8626 121.564 36.8175C121.619 30.7566 117.94 26.1126 110.008 22.3177C105.193 19.8816 102.245 18.239 102.245 15.7464C102.301 13.4805 104.739 11.1596 110.174 11.1596C114.649 11.0459 117.938 12.1217 120.429 13.1982L121.674 13.7635L123.546 2.2667Z" fill="#686868"/>
<path d="M141.842 35.3447C142.976 32.2861 147.338 20.4482 147.338 20.4482C147.281 20.5619 148.47 17.3331 149.15 15.351L150.112 19.9386C150.112 19.9386 152.719 32.6828 153.285 35.3447C151.133 35.3447 144.561 35.3447 141.842 35.3447ZM158.835 0.964844H148.187C144.903 0.964844 142.408 1.92693 140.991 5.38231L120.543 54.2055H134.988C134.988 54.2055 137.366 47.6343 137.877 46.219C139.462 46.219 153.514 46.219 155.552 46.219C155.947 48.0882 157.195 54.2055 157.195 54.2055H169.941L158.835 0.964844Z" fill="#686868"/>
<path d="M48.3771 0.964844L34.8951 37.2704L33.4219 29.9072C30.9293 21.4111 23.1122 12.1801 14.3887 7.59029L26.7377 54.1498H41.2955L62.9341 0.964844H48.3771Z" fill="#686868"/>
<path d="M22.3756 0.964844H0.226594L0 2.0406C17.2776 6.45882 28.7203 17.1088 33.4216 29.9095L28.6066 5.44027C27.8139 2.03985 25.3778 1.07701 22.3756 0.964844Z" fill="#686868"/>
</svg>
